<svg width="168" height="74" viewBox="0 0 168 74" fill="none" xmlns="http://www.w3.org/2000/svg">
<path d="M8.14844 57.8027V60.832H12.252V57.8027H13.2188V65H12.252V61.7451H8.14844V65H7.18164V57.8027H8.14844ZM21.9521 57.6416C22.4964 57.6416 22.9977 57.7419 23.4561 57.9424C23.9144 58.1357 24.3154 58.4043 24.6592 58.748C25.0029 59.0918 25.2679 59.4928 25.4541 59.9512C25.6475 60.4023 25.7441 60.8857 25.7441 61.4014C25.7441 61.917 25.6475 62.404 25.4541 62.8623C25.2679 63.3135 25.0029 63.7109 24.6592 64.0547C24.3154 64.3984 23.9144 64.6706 23.4561 64.8711C22.9977 65.0645 22.4964 65.1611 21.9521 65.1611C21.4079 65.1611 20.9066 65.0645 20.4482 64.8711C19.9899 64.6706 19.5889 64.3984 19.2451 64.0547C18.9014 63.7109 18.6328 63.3135 18.4395 62.8623C18.2533 62.404 18.1602 61.917 18.1602 61.4014C18.1602 60.8857 18.2533 60.4023 18.4395 59.9512C18.6328 59.4928 18.9014 59.0918 19.2451 58.748C19.5889 58.4043 19.9899 58.1357 20.4482 57.9424C20.9066 57.7419 21.4079 57.6416 21.9521 57.6416ZM21.9521 58.5869C21.415 58.5869 20.9352 58.7087 20.5127 58.9521C20.0902 59.1956 19.7572 59.5322 19.5137 59.9619C19.2702 60.3844 19.1484 60.8643 19.1484 61.4014C19.1484 61.9385 19.2702 62.4183 19.5137 62.8408C19.7572 63.2633 20.0902 63.5999 20.5127 63.8506C20.9352 64.0941 21.415 64.2158 21.9521 64.2158C22.4893 64.2158 22.9691 64.0941 23.3916 63.8506C23.8141 63.5999 24.1471 63.2633 24.3906 62.8408C24.6341 62.4183 24.7559 61.9385 24.7559 61.4014C24.7559 60.8643 24.6341 60.3844 24.3906 59.9619C24.1471 59.5322 23.8141 59.1956 23.3916 58.9521C22.9691 58.7087 22.4893 58.5869 21.9521 58.5869ZM35.7559 57.8027V58.7158H33.2744V64.9678H32.3076V58.7158H29.8262V57.8027H35.7559ZM44.9404 60.8535V61.7666H41.4385V64.0869H45.4023V65H40.4717V57.8027H45.4023V58.7158H41.4385V60.8535H44.9404ZM51.6328 57.8027V64.0869H55.5967V65H50.666V57.8027H51.6328ZM62.4609 57.6953C62.8835 57.6953 63.2308 57.7562 63.5029 57.8779C63.7822 57.9997 64.0257 58.1286 64.2334 58.2646V59.2637C64.0329 59.1133 63.7894 58.9736 63.5029 58.8447C63.2165 58.7087 62.9049 58.6406 62.5684 58.6406C62.3535 58.6406 62.1279 58.68 61.8916 58.7588C61.6624 58.8304 61.4691 58.9486 61.3115 59.1133C61.154 59.278 61.0752 59.4893 61.0752 59.7471C61.0752 60.0335 61.179 60.252 61.3867 60.4023C61.5944 60.5527 61.8451 60.696 62.1387 60.832L63.127 61.2832C63.6211 61.5052 63.9935 61.7523 64.2441 62.0244C64.4948 62.2965 64.6201 62.6582 64.6201 63.1094C64.6201 63.5033 64.5055 63.8506 64.2764 64.1514C64.0472 64.445 63.7464 64.6777 63.374 64.8496C63.0016 65.0215 62.5934 65.1074 62.1494 65.1074C61.734 65.1074 61.3509 65.0358 61 64.8926C60.6491 64.7493 60.3447 64.5882 60.0869 64.4092V63.4102C60.3662 63.6035 60.6849 63.779 61.043 63.9365C61.4082 64.0869 61.82 64.1621 62.2783 64.1621C62.6364 64.1621 62.9515 64.0726 63.2236 63.8936C63.4958 63.7145 63.6318 63.4674 63.6318 63.1523C63.6318 62.9733 63.5745 62.8193 63.46 62.6904C63.3525 62.5615 63.2201 62.4505 63.0625 62.3574C62.9049 62.2643 62.751 62.1855 62.6006 62.1211L61.4082 61.584C60.8926 61.3548 60.5417 61.0863 60.3555 60.7783C60.1693 60.4704 60.0762 60.1159 60.0762 59.7148C60.0762 59.3353 60.1836 58.9951 60.3984 58.6943C60.6204 58.3864 60.9141 58.1429 61.2793 57.9639C61.6445 57.7848 62.0384 57.6953 62.4609 57.6953ZM78.2197 57.6416C78.542 57.6416 78.8535 57.7096 79.1543 57.8457C79.4622 57.9818 79.7129 58.1787 79.9062 58.4365C80.1068 58.6943 80.207 59.013 80.207 59.3926C80.207 59.679 80.1462 59.9297 80.0244 60.1445C79.9027 60.3594 79.7415 60.5527 79.541 60.7246C79.3405 60.8893 79.1185 61.0469 78.875 61.1973C78.7819 61.2546 78.6781 61.3154 78.5635 61.3799C78.764 61.609 78.9645 61.8382 79.165 62.0674C79.3727 62.2894 79.5804 62.515 79.7881 62.7441C79.9242 62.5365 80.0638 62.3145 80.207 62.0781C80.3503 61.8346 80.5114 61.5553 80.6904 61.2402H81.7432C81.5068 61.6556 81.2777 62.0459 81.0557 62.4111C80.8337 62.7764 80.6188 63.1094 80.4111 63.4102C80.6475 63.668 80.8874 63.9294 81.1309 64.1943C81.3815 64.4521 81.6393 64.7207 81.9043 65H80.7119C80.4326 64.7207 80.1497 64.4307 79.8633 64.1299C79.5911 64.4378 79.2832 64.6885 78.9395 64.8818C78.5957 65.068 78.1911 65.1611 77.7256 65.1611C77.2529 65.1611 76.8376 65.0752 76.4795 64.9033C76.1286 64.7314 75.8529 64.4987 75.6523 64.2051C75.459 63.9043 75.3623 63.5605 75.3623 63.1738C75.3623 62.8229 75.4447 62.5257 75.6094 62.2822C75.7812 62.0316 76.0033 61.8167 76.2754 61.6377C76.5475 61.4587 76.834 61.2975 77.1348 61.1543C76.8984 60.9108 76.6908 60.6566 76.5117 60.3916C76.3398 60.1266 76.2539 59.8151 76.2539 59.457C76.2539 59.0488 76.347 58.7122 76.5332 58.4473C76.7266 58.1751 76.9736 57.9746 77.2744 57.8457C77.5752 57.7096 77.8903 57.6416 78.2197 57.6416ZM77.3174 59.5C77.3174 59.722 77.3818 59.9333 77.5107 60.1338C77.6396 60.3343 77.7972 60.5348 77.9834 60.7354C78.3057 60.5706 78.5778 60.3844 78.7998 60.1768C79.029 59.9691 79.1436 59.7077 79.1436 59.3926C79.1436 59.2064 79.0934 59.056 78.9932 58.9414C78.9001 58.8197 78.7819 58.7301 78.6387 58.6729C78.4954 58.6156 78.3558 58.5869 78.2197 58.5869C78.0049 58.5869 77.8008 58.6549 77.6074 58.791C77.4141 58.9271 77.3174 59.1634 77.3174 59.5ZM76.4258 63.1738C76.4258 63.5033 76.5511 63.7611 76.8018 63.9473C77.0524 64.1263 77.3711 64.2158 77.7578 64.2158C78.1374 64.2158 78.4346 64.1442 78.6494 64.001C78.8714 63.8577 79.0684 63.6823 79.2402 63.4746C78.9967 63.2025 78.7497 62.9303 78.499 62.6582C78.2555 62.3789 78.0049 62.0924 77.7471 61.7988C77.389 61.9779 77.0775 62.1712 76.8125 62.3789C76.5547 62.5866 76.4258 62.8516 76.4258 63.1738ZM96.0518 57.8027C96.4671 57.8027 96.8646 57.8815 97.2441 58.0391C97.6237 58.1895 97.9352 58.4258 98.1787 58.748C98.4294 59.0632 98.5547 59.4678 98.5547 59.9619C98.5547 60.4059 98.4258 60.7819 98.168 61.0898C97.9173 61.3978 97.5951 61.6305 97.2012 61.7881C96.8145 61.9385 96.4134 62.0137 95.998 62.0137C95.8691 62.0137 95.6973 62.0065 95.4824 61.9922L98.834 65H97.3516L94.2578 61.9922V65H93.291V57.8027H96.0518ZM94.2578 58.7158V61.0254C94.4941 61.0898 94.752 61.14 95.0312 61.1758C95.3105 61.2116 95.5863 61.2295 95.8584 61.2295C96.4027 61.2295 96.8216 61.1149 97.1152 60.8857C97.416 60.6566 97.5664 60.3486 97.5664 59.9619C97.5664 59.5609 97.4017 59.2529 97.0723 59.0381C96.75 58.8232 96.3561 58.7158 95.8906 58.7158H94.2578ZM107.814 60.8535V61.7666H104.312V64.0869H108.276V65H103.346V57.8027H108.276V58.7158H104.312V60.8535H107.814ZM115.28 57.6953C115.703 57.6953 116.05 57.7562 116.322 57.8779C116.602 57.9997 116.845 58.1286 117.053 58.2646V59.2637C116.852 59.1133 116.609 58.9736 116.322 58.8447C116.036 58.7087 115.724 58.6406 115.388 58.6406C115.173 58.6406 114.947 58.68 114.711 58.7588C114.482 58.8304 114.288 58.9486 114.131 59.1133C113.973 59.278 113.895 59.4893 113.895 59.7471C113.895 60.0335 113.998 60.252 114.206 60.4023C114.414 60.5527 114.664 60.696 114.958 60.832L115.946 61.2832C116.44 61.5052 116.813 61.7523 117.063 62.0244C117.314 62.2965 117.439 62.6582 117.439 63.1094C117.439 63.5033 117.325 63.8506 117.096 64.1514C116.867 64.445 116.566 64.6777 116.193 64.8496C115.821 65.0215 115.413 65.1074 114.969 65.1074C114.553 65.1074 114.17 65.0358 113.819 64.8926C113.468 64.7493 113.164 64.5882 112.906 64.4092V63.4102C113.186 63.6035 113.504 63.779 113.862 63.9365C114.228 64.0869 114.639 64.1621 115.098 64.1621C115.456 64.1621 115.771 64.0726 116.043 63.8936C116.315 63.7145 116.451 63.4674 116.451 63.1523C116.451 62.9733 116.394 62.8193 116.279 62.6904C116.172 62.5615 116.039 62.4505 115.882 62.3574C115.724 62.2643 115.57 62.1855 115.42 62.1211L114.228 61.584C113.712 61.3548 113.361 61.0863 113.175 60.7783C112.989 60.4704 112.896 60.1159 112.896 59.7148C112.896 59.3353 113.003 58.9951 113.218 58.6943C113.44 58.3864 113.733 58.1429 114.099 57.9639C114.464 57.7848 114.858 57.6953 115.28 57.6953ZM125.528 57.6416C126.073 57.6416 126.574 57.7419 127.032 57.9424C127.491 58.1357 127.892 58.4043 128.235 58.748C128.579 59.0918 128.844 59.4928 129.03 59.9512C129.224 60.4023 129.32 60.8857 129.32 61.4014C129.32 61.917 129.224 62.404 129.03 62.8623C128.844 63.3135 128.579 63.7109 128.235 64.0547C127.892 64.3984 127.491 64.6706 127.032 64.8711C126.574 65.0645 126.073 65.1611 125.528 65.1611C124.984 65.1611 124.483 65.0645 124.024 64.8711C123.566 64.6706 123.165 64.3984 122.821 64.0547C122.478 63.7109 122.209 63.3135 122.016 62.8623C121.829 62.404 121.736 61.917 121.736 61.4014C121.736 60.8857 121.829 60.4023 122.016 59.9512C122.209 59.4928 122.478 59.0918 122.821 58.748C123.165 58.4043 123.566 58.1357 124.024 57.9424C124.483 57.7419 124.984 57.6416 125.528 57.6416ZM125.528 58.5869C124.991 58.5869 124.511 58.7087 124.089 58.9521C123.666 59.1956 123.333 59.5322 123.09 59.9619C122.846 60.3844 122.725 60.8643 122.725 61.4014C122.725 61.9385 122.846 62.4183 123.09 62.8408C123.333 63.2633 123.666 63.5999 124.089 63.8506C124.511 64.0941 124.991 64.2158 125.528 64.2158C126.065 64.2158 126.545 64.0941 126.968 63.8506C127.39 63.5999 127.723 63.2633 127.967 62.8408C128.21 62.4183 128.332 61.9385 128.332 61.4014C128.332 60.8643 128.21 60.3844 127.967 59.9619C127.723 59.5322 127.39 59.1956 126.968 58.9521C126.545 58.7087 126.065 58.5869 125.528 58.5869ZM137.022 57.8027C137.438 57.8027 137.835 57.8815 138.215 58.0391C138.594 58.1895 138.906 58.4258 139.149 58.748C139.4 59.0632 139.525 59.4678 139.525 59.9619C139.525 60.4059 139.396 60.7819 139.139 61.0898C138.888 61.3978 138.566 61.6305 138.172 61.7881C137.785 61.9385 137.384 62.0137 136.969 62.0137C136.84 62.0137 136.668 62.0065 136.453 61.9922L139.805 65H138.322L135.229 61.9922V65H134.262V57.8027H137.022ZM135.229 58.7158V61.0254C135.465 61.0898 135.723 61.14 136.002 61.1758C136.281 61.2116 136.557 61.2295 136.829 61.2295C137.373 61.2295 137.792 61.1149 138.086 60.8857C138.387 60.6566 138.537 60.3486 138.537 59.9619C138.537 59.5609 138.372 59.2529 138.043 59.0381C137.721 58.8232 137.327 58.7158 136.861 58.7158H135.229ZM149.387 57.8027V58.7158H146.905V64.9678H145.938V58.7158H143.457V57.8027H149.387ZM155.843 57.6953C156.265 57.6953 156.613 57.7562 156.885 57.8779C157.164 57.9997 157.408 58.1286 157.615 58.2646V59.2637C157.415 59.1133 157.171 58.9736 156.885 58.8447C156.598 58.7087 156.287 58.6406 155.95 58.6406C155.735 58.6406 155.51 58.68 155.273 58.7588C155.044 58.8304 154.851 58.9486 154.693 59.1133C154.536 59.278 154.457 59.4893 154.457 59.7471C154.457 60.0335 154.561 60.252 154.769 60.4023C154.976 60.5527 155.227 60.696 155.521 60.832L156.509 61.2832C157.003 61.5052 157.375 61.7523 157.626 62.0244C157.877 62.2965 158.002 62.6582 158.002 63.1094C158.002 63.5033 157.887 63.8506 157.658 64.1514C157.429 64.445 157.128 64.6777 156.756 64.8496C156.383 65.0215 155.975 65.1074 155.531 65.1074C155.116 65.1074 154.733 65.0358 154.382 64.8926C154.031 64.7493 153.727 64.5882 153.469 64.4092V63.4102C153.748 63.6035 154.067 63.779 154.425 63.9365C154.79 64.0869 155.202 64.1621 155.66 64.1621C156.018 64.1621 156.333 64.0726 156.605 63.8936C156.878 63.7145 157.014 63.4674 157.014 63.1523C157.014 62.9733 156.956 62.8193 156.842 62.6904C156.734 62.5615 156.602 62.4505 156.444 62.3574C156.287 62.2643 156.133 62.1855 155.982 62.1211L154.79 61.584C154.274 61.3548 153.924 61.0863 153.737 60.7783C153.551 60.4704 153.458 60.1159 153.458 59.7148C153.458 59.3353 153.565 58.9951 153.78 58.6943C154.002 58.3864 154.296 58.1429 154.661 57.9639C155.026 57.7848 155.42 57.6953 155.843 57.6953Z" fill="#7F4524" fill-opacity="0.5"/>
<path d="M16.155 47.72C14.145 47.72 12.27 47.375 10.53 46.685C8.82 45.995 7.305 44.99 5.985 43.67C4.695 42.35 3.69 40.73 2.97 38.81C2.25 36.86 1.89 34.64 1.89 32.15C1.89 29.6 2.265 27.35 3.015 25.4C3.765 23.45 4.8 21.815 6.12 20.495C7.47 19.145 9 18.125 10.71 17.435C12.45 16.745 14.295 16.4 16.245 16.4C17.505 16.4 18.81 16.55 20.16 16.85C21.54 17.12 22.86 17.645 24.12 18.425L24.48 25.4H22.815L20.385 18.02L22.95 18.695L23.04 20.315C21.93 19.415 20.85 18.8 19.8 18.47C18.75 18.11 17.73 17.93 16.74 17.93C15.06 17.93 13.5 18.455 12.06 19.505C10.65 20.555 9.51 22.13 8.64 24.23C7.8 26.3 7.38 28.925 7.38 32.105C7.38 35.255 7.785 37.88 8.595 39.98C9.405 42.05 10.5 43.61 11.88 44.66C13.29 45.68 14.85 46.19 16.56 46.19C17.61 46.19 18.705 46.025 19.845 45.695C21.015 45.335 22.155 44.72 23.265 43.85L23.22 45.425L20.7 46.055L23.085 38.585H24.795L24.435 45.65C23.205 46.37 21.885 46.895 20.475 47.225C19.095 47.555 17.655 47.72 16.155 47.72ZM26.9051 47V45.695L30.6851 45.155H31.5401L35.7701 45.695V47H26.9051ZM29.5151 47L39.4151 16.895H42.1601L52.1501 47H46.7051L38.6951 21.35H39.5051L39.3251 21.935L31.3151 47H29.5151ZM33.8801 37.1V35.525H46.1651V37.1H33.8801ZM42.4301 47V45.695L47.5151 45.065H50.0351L54.5351 45.695V47H42.4301ZM56.4198 47V45.695L61.6398 45.065H62.5398V47H56.4198ZM59.8398 47C59.8998 45.68 59.9448 44.24 59.9748 42.68C60.0048 41.09 60.0198 39.47 60.0198 37.82C60.0198 36.14 60.0198 34.505 60.0198 32.915V31.025C60.0198 29.465 60.0198 27.875 60.0198 26.255C60.0198 24.605 60.0048 23 59.9748 21.44C59.9748 19.88 59.9448 18.44 59.8848 17.12H65.2848C65.2248 18.44 65.1798 19.88 65.1498 21.44C65.1198 23 65.1048 24.605 65.1048 26.255C65.1048 27.875 65.1048 29.465 65.1048 31.025V32.735C65.1048 34.355 65.1048 36.02 65.1048 37.73C65.1048 39.41 65.1198 41.045 65.1498 42.635C65.1798 44.225 65.2248 45.68 65.2848 47H59.8398ZM62.3148 47V45.425H67.0848C69.5448 45.425 71.4048 44.855 72.6648 43.715C73.9548 42.545 74.5998 40.94 74.5998 38.9C74.5998 36.68 73.9698 35.03 72.7098 33.95C71.4798 32.84 69.5448 32.285 66.9048 32.285H62.3148V30.755H66.6798C68.2098 30.755 69.4698 30.53 70.4598 30.08C71.4798 29.6 72.2298 28.895 72.7098 27.965C73.2198 27.035 73.4748 25.88 73.4748 24.5C73.4748 23.12 73.2348 22.01 72.7548 21.17C72.3048 20.33 71.6148 19.715 70.6848 19.325C69.7848 18.905 68.6598 18.695 67.3098 18.695H62.3148V17.12H68.3898C70.6998 17.12 72.5898 17.42 74.0598 18.02C75.5298 18.62 76.6098 19.46 77.2998 20.54C78.0198 21.59 78.3798 22.805 78.3798 24.185C78.3798 25.445 78.0348 26.615 77.3448 27.695C76.6848 28.775 75.6348 29.66 74.1948 30.35C72.7848 31.01 70.9548 31.415 68.7048 31.565V31.205C71.1948 31.295 73.2648 31.67 74.9148 32.33C76.5648 32.99 77.7948 33.875 78.6048 34.985C79.4448 36.095 79.8648 37.37 79.8648 38.81C79.8648 39.95 79.6098 41.015 79.0998 42.005C78.5898 42.995 77.8248 43.865 76.8048 44.615C75.8148 45.365 74.5548 45.95 73.0248 46.37C71.4948 46.79 69.7098 47 67.6698 47H62.3148ZM56.4198 18.425V17.12H62.5398V19.055H61.6398L56.4198 18.425ZM80.4305 47V45.695L84.2105 45.155H85.0655L89.2955 45.695V47H80.4305ZM83.0405 47L92.9405 16.895H95.6855L105.675 47H100.23L92.2205 21.35H93.0305L92.8505 21.935L84.8405 47H83.0405ZM87.4055 37.1V35.525H99.6905V37.1H87.4055ZM95.9555 47V45.695L101.04 45.065H103.56L108.06 45.695V47H95.9555ZM109.898 47V45.695L114.083 45.155H115.028L119.663 45.695V47H109.898ZM113.588 47V17.975H115.388V32.06V47H113.588ZM127.988 18.425V17.12H137.573V18.425L133.703 18.965H132.803L127.988 18.425ZM132.128 47.225L115.163 21.935H115.073L113.003 18.785L110.033 18.425V17.12H117.908L132.983 39.53L132.353 39.62V31.745V17.12H134.153V47.225H132.128ZM138.043 47V45.695L141.823 45.155H142.678L146.908 45.695V47H138.043ZM140.653 47L150.553 16.895H153.298L163.288 47H157.843L149.833 21.35H150.643L150.463 21.935L142.453 47H140.653ZM145.018 37.1V35.525H157.303V37.1H145.018ZM153.568 47V45.695L158.653 45.065H161.173L165.673 45.695V47H153.568Z" fill="#184F67"/>
</svg>
